<?xml version="1.0" encoding="iso-8859-1"?>
<!-- Generator: Adobe Illustrator 19.0.0, SVG Export Plug-In . SVG Version: 6.00 Build 0)  -->
<svg version="1.1" id="Layer_1" xmlns="http://www.w3.org/2000/svg" xmlns:xlink="http://www.w3.org/1999/xlink" x="0px" y="0px"
	 viewBox="0 0 511.998 511.998" style="enable-background:new 0 0 511.998 511.998;" xml:space="preserve">
<path style="fill:#00A4DF;" d="M294.543,90.703l-141.86,139.109v60.54c29.052,5.566,56.202,19.12,78.254,39.423l51.031,46.985
	c10.525,10.526,13.264,25.882,8.235,38.93h146.202V229.811L294.543,90.703z"/>
<polygon style="fill:#FF3D62;" points="463.787,256.663 294.543,90.703 125.299,256.663 88.546,222.501 294.543,22.667 
	500.54,222.501 "/>
<polygon style="fill:#00B689;" points="448.024,171.555 448.024,70.821 395.322,70.821 395.322,120.432 "/>
<polygon style="fill:#00A4DF;" points="104.602,287.492 11.459,287.492 11.459,349.661 11.459,451.704 104.602,451.461 "/>
<path style="fill:#FF9013;" d="M433.743,415.69H290.202l-0.196,0.521c-1.781,4.416-4.459,8.555-8.039,12.134l-0.118,0.118
	c-14.245,14.245-37.341,14.245-51.585,0l-44.903-44.856c-21.441-21.418-50.454-33.53-80.759-33.715l0,0v101.57l36.09,22.659
	c15.827,9.937,34.137,15.209,52.825,15.209h240.227c20.145,0,36.477-16.332,36.477-36.477v-0.166
	C470.22,432.541,453.89,415.69,433.743,415.69z"/>
<path style="fill:#00B689;" d="M242.481,276.68v63.724l39.487,36.356c10.525,10.526,13.264,25.882,8.235,38.93h56.403V276.68
	L242.481,276.68L242.481,276.68z"/>
<path d="M379.907,238.799c-0.745,0-1.501-0.069-2.235-0.218s-1.455-0.378-2.143-0.665c-0.699-0.286-1.364-0.642-1.982-1.054
	c-0.63-0.413-1.215-0.894-1.742-1.421c-0.527-0.527-1.008-1.112-1.421-1.742c-0.413-0.619-0.768-1.283-1.054-1.971
	c-0.286-0.699-0.504-1.421-0.653-2.143c-0.149-0.745-0.229-1.501-0.229-2.246c0-0.745,0.08-1.501,0.229-2.235
	c0.149-0.733,0.367-1.455,0.653-2.143c0.286-0.699,0.642-1.364,1.054-1.982c0.413-0.63,0.894-1.215,1.421-1.742
	c0.527-0.527,1.112-1.008,1.742-1.421c0.619-0.413,1.283-0.768,1.982-1.054c0.688-0.286,1.409-0.504,2.143-0.653
	c1.478-0.298,2.991-0.298,4.469,0c0.733,0.149,1.455,0.367,2.154,0.653c0.688,0.286,1.352,0.642,1.971,1.054
	c0.63,0.413,1.215,0.894,1.742,1.421s1.008,1.112,1.432,1.742c0.413,0.619,0.756,1.283,1.043,1.982
	c0.286,0.688,0.516,1.409,0.653,2.143c0.149,0.733,0.229,1.49,0.229,2.235c0,0.745-0.08,1.501-0.229,2.246
	c-0.138,0.722-0.367,1.444-0.653,2.143c-0.286,0.688-0.63,1.352-1.043,1.971c-0.424,0.63-0.905,1.215-1.432,1.742
	s-1.112,1.008-1.742,1.421c-0.619,0.413-1.283,0.768-1.971,1.054c-0.699,0.286-1.421,0.516-2.154,0.665
	C381.409,238.729,380.652,238.799,379.907,238.799z"/>
<path d="M55.466,342.17c-0.745,0-1.501-0.069-2.235-0.218c-0.733-0.149-1.455-0.367-2.143-0.653
	c-0.699-0.286-1.364-0.642-1.982-1.054c-0.63-0.424-1.215-0.905-1.742-1.432c-0.527-0.527-1.008-1.112-1.421-1.742
	c-0.413-0.619-0.768-1.283-1.054-1.971c-0.286-0.699-0.516-1.421-0.653-2.143c-0.149-0.745-0.229-1.501-0.229-2.246
	s0.08-1.501,0.229-2.235c0.138-0.733,0.367-1.455,0.653-2.143c0.286-0.699,0.642-1.364,1.054-1.982
	c0.413-0.63,0.894-1.215,1.421-1.742s1.112-1.008,1.742-1.421c0.619-0.413,1.283-0.768,1.982-1.054
	c0.688-0.286,1.409-0.504,2.143-0.653c1.478-0.298,2.991-0.298,4.469,0c0.733,0.149,1.455,0.367,2.154,0.653
	c0.688,0.286,1.352,0.642,1.971,1.054c0.63,0.413,1.215,0.894,1.742,1.421c0.527,0.527,1.008,1.112,1.421,1.742
	c0.413,0.619,0.768,1.283,1.054,1.982c0.286,0.688,0.516,1.409,0.653,2.143c0.149,0.733,0.229,1.49,0.229,2.235
	c0,0.745-0.08,1.501-0.229,2.246c-0.138,0.722-0.367,1.444-0.653,2.143c-0.286,0.688-0.642,1.352-1.054,1.971
	c-0.413,0.63-0.894,1.215-1.421,1.742c-0.527,0.527-1.112,1.008-1.742,1.432c-0.619,0.413-1.283,0.768-1.971,1.054
	c-0.699,0.286-1.421,0.504-2.154,0.653S56.21,342.17,55.466,342.17z"/>
<path style="fill:#FF9013;" d="M281.967,376.759l-51.031-46.985c-29.531-27.19-68.207-42.283-108.349-42.283h-17.985l0,0v62.401l0,0
	c30.316,0.093,59.363,12.188,80.787,33.638l44.876,44.932c14.245,14.245,37.341,14.245,51.585,0l0.118-0.118
	C296.212,414.1,296.212,391.004,281.967,376.759z"/>
<path d="M455.764,264.845c2.225,2.182,5.123,3.277,8.024,3.277c2.797,0,5.599-1.02,7.8-3.065l36.753-34.163
	c2.301-2.139,3.623-5.13,3.657-8.271c0.033-3.141-1.224-6.159-3.48-8.347l-49.037-47.57V70.821c0-6.329-5.13-11.459-11.459-11.459
	h-52.7c-6.329,0-11.459,5.13-11.459,11.459v22.53l-81.341-78.907c-4.445-4.312-11.513-4.312-15.958,0L80.567,214.276
	c-2.255,2.188-3.513,5.205-3.48,8.347c0.033,3.142,1.356,6.133,3.657,8.271l36.753,34.163c4.485,4.169,11.455,4.074,15.825-0.212
	l7.901-7.747v19.945c-6.157-0.669-12.376-1.01-18.636-1.01h-17.984H11.459C5.13,276.033,0,281.163,0,287.492v164.214
	c0,3.045,1.211,5.963,3.367,8.113c2.149,2.143,5.059,3.346,8.092,3.346c0.01,0,0.021,0,0.03,0l89.828-0.235l33.283,20.897
	c17.675,11.097,38.049,16.963,58.919,16.963h240.225c26.432,0,47.936-21.504,47.936-47.936v-0.166
	c0-21.753-14.254-40.202-33.816-46.309V257.098L455.764,264.845z M93.143,349.892v90.14l-26.218,0.069V368.53
	c0-6.329-5.13-11.459-11.459-11.459s-11.459,5.13-11.459,11.459v71.631l-21.088,0.055V298.951h70.225
	C93.143,298.951,93.143,349.892,93.143,349.892z M406.781,82.28h29.782v62.194l-4.601-4.463l-25.181-24.429L406.781,82.28
	L406.781,82.28z M125.088,240.822l-19.901-18.498L294.543,38.632l110.976,107.655l34.526,33.494
	c0.001,0.001,0.003,0.002,0.005,0.005l43.851,42.539l-19.901,18.498l-161.433-158.3c-0.278-0.273-0.567-0.529-0.865-0.768
	c-4.173-3.346-10.141-3.346-14.315,0c-0.298,0.239-0.587,0.495-0.865,0.768L125.088,240.822z M116.061,298.951h6.525
	c9.315,0,18.526,0.867,27.534,2.559c0.135,0.031,0.268,0.07,0.406,0.096c21.993,4.214,42.639,13.31,60.501,26.555
	c0.138,0.102,0.275,0.204,0.411,0.306c2.542,1.898,5.023,3.885,7.446,5.948c0.273,0.233,0.545,0.466,0.817,0.701
	c1.17,1.012,2.331,2.036,3.472,3.087l11.543,10.627c0,0.001,0.001,0.001,0.002,0.002l9.914,9.128l29.382,27.053
	c0.007,0.007,0.011,0.014,0.018,0.019c0.523,0.533,1.007,1.09,1.473,1.657c0.151,0.184,0.297,0.374,0.442,0.561
	c0.325,0.421,0.635,0.85,0.93,1.287c0.132,0.194,0.268,0.385,0.394,0.582c0.372,0.584,0.72,1.18,1.038,1.788
	c0.11,0.209,0.205,0.424,0.308,0.636c0.218,0.443,0.424,0.892,0.613,1.345c0.104,0.25,0.205,0.5,0.301,0.752
	c0.191,0.503,0.364,1.012,0.523,1.524c0.052,0.166,0.111,0.33,0.159,0.497c0.195,0.685,0.359,1.377,0.494,2.074
	c0.032,0.162,0.055,0.325,0.084,0.488c0.102,0.586,0.186,1.173,0.245,1.764c0.016,0.158,0.033,0.316,0.047,0.474
	c0.124,1.486,0.119,2.981-0.022,4.466c-0.003,0.036-0.009,0.07-0.013,0.105c-0.008,0.072-0.017,0.146-0.025,0.218
	c-0.068,0.633-0.163,1.263-0.278,1.89c-0.027,0.15-0.054,0.301-0.085,0.452c-0.141,0.693-0.308,1.382-0.509,2.063
	c-0.01,0.033-0.016,0.066-0.026,0.1c-0.916,3.063-2.429,5.984-4.541,8.577c-0.006,0.007-0.01,0.015-0.016,0.022
	c-0.531,0.651-1.099,1.28-1.706,1.886l-0.118,0.118c-4.134,4.134-9.462,6.644-15.205,7.207c-0.82,0.08-1.649,0.121-2.484,0.121
	c-0.98,0-1.947-0.073-2.906-0.183c-5.581-0.643-10.752-3.112-14.787-7.148l-44.867-44.923
	c-21.015-21.042-48.172-33.755-77.435-36.457L116.061,298.951L116.061,298.951z M253.94,335.377v-47.239h81.206V404.23h-31.073
	c0.023-0.672,0.026-1.343,0.018-2.013c-0.005-0.622-0.027-1.243-0.056-1.864c0-0.001,0-0.002,0-0.003
	c-0.002-0.053-0.005-0.107-0.007-0.159l0,0c-0.033-0.673-0.082-1.343-0.144-2.012v-0.001c-0.013-0.134-0.024-0.268-0.038-0.402l0,0
	c-0.144-1.438-0.354-2.868-0.628-4.286c-0.04-0.205-0.079-0.41-0.12-0.615v-0.001c-0.088-0.429-0.18-0.856-0.28-1.281l0,0
	c-0.093-0.397-0.194-0.792-0.296-1.186c0-0.001,0-0.001,0-0.002c-0.175-0.669-0.368-1.334-0.572-1.995
	c-0.048-0.156-0.093-0.314-0.143-0.47v-0.001c-0.08-0.25-0.157-0.501-0.242-0.751l0,0c-0.044-0.13-0.094-0.258-0.14-0.387
	c-0.327-0.939-0.685-1.867-1.07-2.786c-0.129-0.307-0.251-0.618-0.387-0.924c0-0.001-0.001-0.001-0.001-0.001
	c-0.268-0.604-0.555-1.199-0.848-1.791c-0.089-0.182-0.171-0.367-0.264-0.548v-0.001c-0.017-0.033-0.032-0.068-0.049-0.101l0,0
	c-0.325-0.635-0.673-1.263-1.028-1.886c-0.249-0.435-0.513-0.864-0.777-1.293c-0.21-0.343-0.411-0.69-0.631-1.028
	c-0.297-0.458-0.614-0.904-0.928-1.353c-0.155-0.22-0.298-0.446-0.457-0.665c-0.501-0.691-1.019-1.371-1.558-2.037l0,0
	c-0.466-0.574-0.951-1.139-1.447-1.696c0,0-0.001-0.001-0.001-0.002c-0.062-0.069-0.118-0.141-0.181-0.211l0,0
	c-0.557-0.618-1.132-1.225-1.727-1.82c-0.112-0.111-0.226-0.22-0.341-0.327L253.94,335.377z M458.761,452.688v0.166
	c0,13.794-11.223,25.018-25.018,25.018H193.518c-16.554,0-32.713-4.652-46.733-13.454l-30.724-19.29v-83.074
	c23.11,2.685,44.513,12.991,61.202,29.662l44.898,44.851c9.054,9.054,21.092,14.04,33.896,14.04c12.803,0,24.841-4.986,33.896-14.04
	l0.118-0.118c0.65-0.65,1.271-1.316,1.875-1.993c0.212-0.237,0.414-0.482,0.621-0.723c0.38-0.443,0.755-0.889,1.117-1.343
	c0.241-0.303,0.476-0.608,0.708-0.916c0.311-0.409,0.612-0.823,0.908-1.239c0.235-0.332,0.471-0.664,0.697-1.002
	c0.286-0.427,0.559-0.862,0.831-1.296c0.165-0.265,0.345-0.52,0.505-0.788h49.274h87.139
	C447.304,427.149,458.761,438.844,458.761,452.688z M424.945,234.624V404.23h-66.881V276.679c0-6.329-5.13-11.459-11.459-11.459
	H242.481c-6.329,0-11.459,5.13-11.459,11.459v38.016c-0.581-0.474-1.17-0.937-1.757-1.404c-0.642-0.511-1.286-1.018-1.934-1.519
	c-0.555-0.429-1.11-0.856-1.67-1.278c-1.14-0.859-2.287-1.707-3.446-2.537c-0.273-0.195-0.55-0.383-0.824-0.576
	c-1.076-0.76-2.16-1.506-3.251-2.24c-0.319-0.214-0.637-0.427-0.957-0.639c-2.817-1.868-5.684-3.647-8.597-5.34
	c-0.015-0.009-0.031-0.017-0.046-0.026c-13.894-8.067-28.83-14.122-44.401-18.005v-42.331h177.952
	c6.329,0,11.459-5.13,11.459-11.459c0-6.329-5.13-11.459-11.459-11.459H183.255l111.287-109.129L424.945,234.624z"/>
<g>
</g>
<g>
</g>
<g>
</g>
<g>
</g>
<g>
</g>
<g>
</g>
<g>
</g>
<g>
</g>
<g>
</g>
<g>
</g>
<g>
</g>
<g>
</g>
<g>
</g>
<g>
</g>
<g>
</g>
</svg>
