<?xml version="1.0" encoding="iso-8859-1"?>
<!-- Generator: Adobe Illustrator 19.0.0, SVG Export Plug-In . SVG Version: 6.00 Build 0)  -->
<svg version="1.1" id="Layer_1" xmlns="http://www.w3.org/2000/svg" xmlns:xlink="http://www.w3.org/1999/xlink" x="0px" y="0px"
	 viewBox="0 0 512 512" style="enable-background:new 0 0 512 512;" xml:space="preserve">
<polygon style="fill:#FF3D62;" points="457.292,289.588 256.001,92.204 54.709,289.588 10.997,248.957 256.001,11.284 
	501.003,248.957 "/>
<polygon style="fill:#FFBD00;" points="438.543,188.365 438.543,68.556 375.863,68.556 375.863,127.56 "/>
<polygon style="fill:#0071AB;" points="256.001,92.204 87.278,257.652 87.278,500.719 424.724,500.719 424.724,257.652 "/>
<path style="fill:#FFD355;" d="M341.014,500.719H170.988V335.482c0-46.952,38.061-85.013,85.013-85.013l0,0
	c46.952,0,85.013,38.061,85.013,85.013V500.719z"/>
<path d="M508.661,241.064l-59.122-57.352V68.556c0-6.072-4.923-10.997-10.997-10.997h-62.68c-6.073,0-10.997,4.924-10.997,10.997
	v33.015L263.658,3.39c-4.266-4.139-11.048-4.139-15.314,0L3.34,241.064c-2.164,2.099-3.372,4.996-3.34,8.01
	c0.032,3.015,1.301,5.885,3.509,7.937l43.712,40.631c4.304,4.001,10.992,3.911,15.186-0.203l13.873-13.604v216.883
	c0,6.072,4.923,10.997,10.997,10.997h83.71h170.026h83.71c6.073,0,10.997-4.924,10.997-10.997V283.836l13.873,13.604
	c2.136,2.094,4.917,3.145,7.7,3.145c2.684,0,5.373-0.979,7.485-2.943l43.712-40.631c2.208-2.052,3.477-4.922,3.509-7.937
	C512.031,246.059,510.824,243.163,508.661,241.064z M386.859,79.552h40.687v82.824l-40.687-39.47V79.552z M228.509,489.722V359.245
	c0-6.072-4.923-10.997-10.997-10.997c-6.073,0-10.997,4.924-10.997,10.997v130.477h-24.532V335.481
	c0-40.813,33.204-74.016,74.016-74.016s74.016,33.203,74.016,74.016v154.242H228.509z M413.726,489.722H352.01V335.481
	c0-52.941-43.07-96.009-96.009-96.009s-96.009,43.069-96.009,96.009v154.242H98.274V262.269l157.726-154.664l157.726,154.664
	v227.453H413.726z M457.494,274.386l-25.065-24.579c-0.002-0.002-0.004-0.005-0.007-0.008L263.699,84.352
	c-4.277-4.194-11.122-4.194-15.398,0L79.579,249.799c-0.002,0.002-0.004,0.004-0.007,0.008l-25.067,24.579l-27.541-25.6
	L256.001,26.605l112.2,108.842c0.002,0.002,0.004,0.004,0.006,0.007l62.68,60.804c0,0,0.001,0.001,0.002,0.001l54.148,52.527
	L457.494,274.386z"/>
<path d="M217.513,333.956c-0.715,0-1.441-0.077-2.144-0.22c-0.704-0.143-1.397-0.351-2.067-0.626
	c-0.66-0.275-1.298-0.617-1.891-1.012c-0.605-0.396-1.166-0.858-1.671-1.364s-0.968-1.067-1.364-1.673
	c-0.396-0.594-0.737-1.232-1.012-1.901c-0.275-0.661-0.495-1.353-0.627-2.056c-0.154-0.704-0.22-1.43-0.22-2.144
	c0-0.714,0.066-1.441,0.209-2.155c0.143-0.693,0.363-1.386,0.638-2.056c0.275-0.66,0.605-1.298,1.012-1.891
	c0.396-0.605,0.858-1.167,1.364-1.673s1.067-0.968,1.671-1.375c0.594-0.395,1.232-0.737,1.891-1.012
	c0.671-0.275,1.364-0.483,2.067-0.626c1.419-0.287,2.87-0.287,4.289,0c0.704,0.143,1.397,0.351,2.056,0.626
	c0.671,0.275,1.309,0.617,1.902,1.012c0.605,0.407,1.166,0.869,1.671,1.375c0.506,0.506,0.968,1.068,1.364,1.673
	c0.396,0.594,0.737,1.232,1.012,1.891c0.275,0.671,0.495,1.364,0.627,2.056c0.143,0.715,0.22,1.442,0.22,2.155
	c0,0.715-0.077,1.442-0.22,2.144c-0.132,0.704-0.352,1.397-0.627,2.056c-0.275,0.67-0.616,1.307-1.012,1.901
	c-0.396,0.606-0.858,1.167-1.364,1.673c-0.506,0.506-1.067,0.968-1.671,1.364c-0.594,0.395-1.232,0.737-1.902,1.012
	c-0.66,0.275-1.353,0.483-2.056,0.626C218.953,333.877,218.228,333.956,217.513,333.956z"/>
<g>
</g>
<g>
</g>
<g>
</g>
<g>
</g>
<g>
</g>
<g>
</g>
<g>
</g>
<g>
</g>
<g>
</g>
<g>
</g>
<g>
</g>
<g>
</g>
<g>
</g>
<g>
</g>
<g>
</g>
</svg>
